<svg xmlns="http://www.w3.org/2000/svg" width="24" height="24" viewBox="0 0 24 24" fill="none" stroke="#0F52BA" stroke-width="2" stroke-linecap="round" stroke-linejoin="round">
  <path d="M19 3v12h-5c-.024 0-.047.008-.071.008a3.82 3.82 0 0 0-.628.082c-.042.01-.08.027-.121.038-.135.042-.265.094-.391.154-.03.015-.058.034-.087.05a3.83 3.83 0 0 0-.993.773c-.03.034-.053.072-.083.107a3.81 3.81 0 0 0-.67 1.154c-.013.036-.028.07-.04.107a3.748 3.748 0 0 0-.116.889V18H5V3Z"></path>
  <path d="M13 18h6"></path>
</svg>